<svg xmlns="http://www.w3.org/2000/svg" xmlns:xlink="http://www.w3.org/1999/xlink" width="100" zoomAndPan="magnify" viewBox="0 0 75 74.999997" height="100" preserveAspectRatio="xMidYMid meet" version="1.0"><path fill="#ffffff" d="M 18.554688 48.921875 L 2.007812 65.46875 C -0.0703125 67.546875 -0.0703125 70.917969 2.007812 72.992188 C 4.082031 75.066406 7.453125 75.066406 9.527344 72.992188 L 26.078125 56.445312 Z M 18.554688 48.921875 " fill-opacity="1" fill-rule="nonzero"/><path fill="#ffffff" d="M 65.109375 9.890625 C 55.226562 0.0078125 39.144531 0.0078125 29.261719 9.890625 C 20.261719 18.882812 19.484375 32.996094 26.863281 42.921875 L 21.890625 47.890625 L 27.113281 53.105469 L 32.082031 48.136719 C 41.996094 55.515625 56.113281 54.738281 65.109375 45.738281 C 74.996094 35.855469 74.996094 19.773438 65.109375 9.890625 Z M 61.335938 41.964844 C 53.53125 49.769531 40.835938 49.769531 33.035156 41.964844 C 25.230469 34.164062 25.230469 21.464844 33.035156 13.664062 C 40.835938 5.859375 53.535156 5.859375 61.335938 13.664062 C 69.140625 21.46875 69.140625 34.164062 61.335938 41.964844 Z M 61.335938 41.964844 " fill-opacity="1" fill-rule="nonzero"/><path fill="#ffffff" d="M 57.21875 12.582031 C 51.136719 8.566406 43.265625 8.558594 37.179688 12.566406 C 36.5625 12.976562 36.390625 13.800781 36.796875 14.414062 C 36.847656 14.492188 36.90625 14.5625 36.964844 14.625 C 37.40625 15.0625 38.105469 15.148438 38.640625 14.796875 C 43.84375 11.375 50.554688 11.378906 55.75 14.808594 C 56.363281 15.21875 57.195312 15.046875 57.597656 14.433594 C 58 13.820312 57.835938 12.992188 57.21875 12.582031 Z M 57.21875 12.582031 " fill-opacity="1" fill-rule="nonzero"/></svg>